<svg xmlns="http://www.w3.org/2000/svg" version="1.1" viewBox="0 0 150 200" width="100" height="100" overflow="visible"><g opacity="1"><defs id="SvgjsDefs85649"><linearGradient id="SvgjsLinearGradientLUFCVNJLXA" gradientUnits="userSpaceOnUse" x1="2.8421709430404e-14" y1="267.7" x2="267.7" y2="-1.4210854715202e-14"><stop id="SvgjsStop85652" stop-color="#4b77e7" offset="0.05"></stop><stop id="SvgjsStop85653" stop-color="#153c9d" offset="0.95"></stop></linearGradient></defs><g transform="scale(0.34004163775156143)" opacity="1"><g transform="translate(118.85999999999996, 0) scale(1.3320134478894285)" light-content="false" non-strokable="false" fill="url(#SvgjsLinearGradientLUFCVNJLXA)"><circle cx="133.8" cy="133.8" r="133.8"></circle></g><g id="SvgjsG85655" class="gQEtKA690d" transform="translate(179.7167235027767, 60.85891144504292) scale(4.516577623400425)" light-content="true" non-strokable="false" fill="#ffffff"><path d="M29.475 39.397a.996.996 0 0 1-.952-.692l-5.51-17.052a1 1 0 0 1 .644-1.26l15.646-5.055c.254-.08.528-.058.762.062.237.12.415.33.497.582l5.51 17.052a1 1 0 0 1-.644 1.26l-15.646 5.055a1.01 1.01 0 0 1-.307.048zM25.224 21.99l4.895 15.148 13.742-4.44-4.895-15.149-13.742 4.44z"></path><path d="M23.965 22.346a1 1 0 0 1-.951-.693l-3.07-9.501a1.001 1.001 0 0 1 .643-1.26l15.646-5.055a1.004 1.004 0 0 1 1.26.644l3.069 9.501a1 1 0 0 1-.644 1.26l-15.646 5.055a1.011 1.011 0 0 1-.307.049zm-1.812-9.858l2.456 7.598 13.743-4.44-2.456-7.598-13.743 4.44zm-2.707 25.981a1 1 0 0 1-.95-.693L9.993 11.47A2.97 2.97 0 0 0 6.26 9.557l-2.951.954a1 1 0 1 1-.615-1.903l2.95-.954a4.973 4.973 0 0 1 6.253 3.2l8.501 26.307a1 1 0 0 1-.95 1.308z"></path><path d="M20.669 46.211a4.976 4.976 0 0 1-4.73-3.44 4.934 4.934 0 0 1 .305-3.79 4.93 4.93 0 0 1 2.895-2.464 4.972 4.972 0 0 1 6.254 3.2 4.974 4.974 0 0 1-4.724 6.494zm0-7.936c-.307 0-.614.048-.915.145a2.944 2.944 0 0 0-1.73 1.472 2.949 2.949 0 0 0-.182 2.264 2.973 2.973 0 0 0 3.736 1.91 2.971 2.971 0 0 0 1.912-3.735 2.948 2.948 0 0 0-1.472-1.73 2.953 2.953 0 0 0-1.348-.326z"></path><path d="M24.441 41.024a1 1 0 0 1-.307-1.952l24.558-7.935a1 1 0 1 1 .615 1.903L24.75 40.975a1.011 1.011 0 0 1-.308.05zm11.328-8.887a1 1 0 0 1-.952-.693l-2.45-7.586a1 1 0 1 1 1.902-.615l2.45 7.586a1 1 0 0 1-.95 1.308z"></path><path d="M31.458 28.183a1 1 0 0 1-.89-1.456l1.859-3.632a1.003 1.003 0 0 1 1.345-.435l3.632 1.859a1 1 0 1 1-.91 1.78l-2.742-1.403-1.402 2.742a1.002 1.002 0 0 1-.892.545z"></path></g><g id="SvgjsG85656" class="text" transform="translate(295.65, 431.46) scale(1)" light-content="false" fill="#4a4a4a"><path d="M-264.75 -2.04C-264.91 -2.2 -265.15 -2.42 -265.47 -2.7C-265.79 -2.98 -266.23 -3.68 -266.79 -4.8C-266.99 -5.28 -267.12 -5.59 -267.18 -5.73C-267.24 -5.87 -267.41 -6.3 -267.69 -7.02L-270.51 -15.06C-271.27 -17.1 -272.15 -18.69 -273.15 -19.83C-274.15 -20.97 -275.59 -21.74 -277.47 -22.14C-276.43 -22.98 -275.45 -24.22 -274.53 -25.86L-266.37 -40.44L-266.85 -41.04C-269.01 -41.2 -270.63 -41.28 -271.71 -41.28C-272.79 -41.28 -273.63 -41.05 -274.23 -40.59C-274.83 -40.13 -275.43 -39.36 -276.03 -38.28L-282.69 -26.4C-283.09 -25.68 -283.45 -25.19 -283.77 -24.93C-284.09 -24.67 -284.57 -24.54 -285.21 -24.54L-287.61 -24.48L-287.61 -40.98C-288.65 -41.18 -289.99 -41.28 -291.63 -41.28C-293.27 -41.28 -294.61 -41.18 -295.65 -40.98L-295.65 0C-294.61 0.2 -293.27 0.3 -291.63 0.3C-289.99 0.3 -288.65 0.2 -287.61 0L-287.61 -17.7C-285.77 -17.78 -284.65 -17.82 -284.25 -17.82C-282.65 -17.82 -281.38 -17.39 -280.44 -16.53C-279.5 -15.67 -278.67 -14.2 -277.95 -12.12L-275.19 -4.26C-274.63 -2.54 -274 -1.32 -273.3 -0.6C-272.6 0.12 -271.55 0.48 -270.15 0.48C-267.67 0.48 -265.87 -0.36 -264.75 -2.04Z M-245.19 -10.26L-245.19 -17.34L-231.15 -17.34C-230.83 -18.26 -230.67 -19.36 -230.67 -20.64C-230.67 -21.92 -230.83 -23.02 -231.15 -23.94L-241.29 -23.94L-245.19 -23.88L-245.19 -30.06L-245.25 -34.2L-228.09 -34.2C-227.65 -35.44 -227.43 -36.63 -227.43 -37.77C-227.43 -38.91 -227.53 -39.98 -227.73 -40.98L-252.75 -40.98L-253.17 -40.56L-253.17 -4.68C-253.17 -3.2 -252.76 -2.03 -251.94 -1.17C-251.12 -0.31 -249.99 0.12 -248.55 0.12L-231.69 0.12C-228.69 0.12 -226.97 -1.16 -226.53 -3.72C-226.41 -4.4 -226.35 -5.38 -226.35 -6.66L-241.05 -6.66L-245.25 -6.54Z M-182.01 -2.04C-182.17 -2.2 -182.41 -2.42 -182.73 -2.7C-183.05 -2.98 -183.49 -3.68 -184.05 -4.8C-184.25 -5.28 -184.38 -5.59 -184.44 -5.73C-184.5 -5.87 -184.67 -6.3 -184.95 -7.02L-187.77 -15.06C-188.53 -17.1 -189.41 -18.69 -190.41 -19.83C-191.41 -20.97 -192.85 -21.74 -194.73 -22.14C-193.69 -22.98 -192.71 -24.22 -191.79 -25.86L-183.63 -40.44L-184.11 -41.04C-186.27 -41.2 -187.89 -41.28 -188.97 -41.28C-190.05 -41.28 -190.89 -41.05 -191.49 -40.59C-192.09 -40.13 -192.69 -39.36 -193.29 -38.28L-199.95 -26.4C-200.35 -25.68 -200.71 -25.19 -201.03 -24.93C-201.35 -24.67 -201.83 -24.54 -202.47 -24.54L-204.87 -24.48L-204.87 -40.98C-205.91 -41.18 -207.25 -41.28 -208.89 -41.28C-210.53 -41.28 -211.87 -41.18 -212.91 -40.98L-212.91 0C-211.87 0.2 -210.53 0.3 -208.89 0.3C-207.25 0.3 -205.91 0.2 -204.87 0L-204.87 -17.7C-203.03 -17.78 -201.91 -17.82 -201.51 -17.82C-199.91 -17.82 -198.64 -17.39 -197.7 -16.53C-196.76 -15.67 -195.93 -14.2 -195.21 -12.12L-192.45 -4.26C-191.89 -2.54 -191.26 -1.32 -190.56 -0.6C-189.86 0.12 -188.81 0.48 -187.41 0.48C-184.93 0.48 -183.13 -0.36 -182.01 -2.04Z M-162.45 -10.26L-162.45 -17.34L-148.41 -17.34C-148.09 -18.26 -147.93 -19.36 -147.93 -20.64C-147.93 -21.92 -148.09 -23.02 -148.41 -23.94L-158.55 -23.94L-162.45 -23.88L-162.45 -30.06L-162.51 -34.2L-145.35 -34.2C-144.91 -35.44 -144.69 -36.63 -144.69 -37.77C-144.69 -38.91 -144.79 -39.98 -144.99 -40.98L-170.01 -40.98L-170.43 -40.56L-170.43 -4.68C-170.43 -3.2 -170.02 -2.03 -169.2 -1.17C-168.38 -0.31 -167.25 0.12 -165.81 0.12L-148.95 0.12C-145.95 0.12 -144.23 -1.16 -143.79 -3.72C-143.67 -4.4 -143.61 -5.38 -143.61 -6.66L-158.31 -6.66L-162.51 -6.54Z M-99.27 -41.34L-101.85 -41.34C-103.45 -41.34 -104.59 -40.96 -105.27 -40.2C-105.95 -39.44 -106.29 -38.16 -106.29 -36.36L-106.29 -25.38C-106.29 -20.22 -106.09 -14.74 -105.69 -8.94L-105.87 -8.88L-109.77 -17.76L-120.69 -40.98C-122.09 -41.18 -123.73 -41.28 -125.61 -41.28C-127.49 -41.28 -129.01 -41.14 -130.17 -40.86L-130.17 0C-129.13 0.2 -127.9 0.3 -126.48 0.3C-125.06 0.3 -123.79 0.2 -122.67 0L-122.67 -15.24C-122.67 -20.48 -122.89 -25.92 -123.33 -31.56L-123.09 -31.62C-122.29 -29.54 -121.09 -26.74 -119.49 -23.22L-108.45 0C-107.05 0.2 -105.41 0.3 -103.53 0.3C-101.65 0.3 -100.09 0.16 -98.85 -0.12L-98.85 -40.92Z M-50.19 -6.84C-52.11 -6.84 -53.93 -6.76 -55.65 -6.6L-55.65 -36.18C-55.65 -37.98 -56.03 -39.29 -56.79 -40.11C-57.55 -40.93 -58.73 -41.34 -60.33 -41.34L-63.33 -41.34L-63.75 -40.92L-63.75 -4.68C-63.75 -3.2 -63.33 -2.03 -62.49 -1.17C-61.65 -0.31 -60.51 0.12 -59.07 0.12L-44.49 0.12C-41.45 0.12 -39.71 -1.18 -39.27 -3.78C-39.11 -4.62 -39.03 -5.64 -39.03 -6.84Z M-3.81 -20.46C-3.81 -10.46 -6.77 -5.46 -12.69 -5.46C-18.61 -5.46 -21.57 -10.46 -21.57 -20.46C-21.57 -30.5 -18.61 -35.52 -12.69 -35.52C-6.77 -35.52 -3.81 -30.5 -3.81 -20.46ZM-23.61 -2.82C-20.65 -0.38 -16.99 0.84 -12.63 0.84C-9.91 0.84 -7.48 0.36 -5.34 -0.6C-3.2 -1.56 -1.39 -2.95 0.09 -4.77C1.57 -6.59 2.7 -8.82 3.48 -11.46C4.26 -14.1 4.65 -17.1 4.65 -20.46C4.65 -23.82 4.26 -26.83 3.48 -29.49C2.7 -32.15 1.57 -34.39 0.09 -36.21C-1.39 -38.03 -3.2 -39.42 -5.34 -40.38C-7.48 -41.34 -9.91 -41.82 -12.63 -41.82C-15.39 -41.82 -17.84 -41.34 -19.98 -40.38C-22.12 -39.42 -23.94 -38.03 -25.44 -36.21C-26.94 -34.39 -28.08 -32.16 -28.86 -29.52C-29.64 -26.88 -30.03 -23.86 -30.03 -20.46C-30.03 -12.38 -27.89 -6.5 -23.61 -2.82Z M33.87 -22.44C33.47 -21.32 33.27 -20.24 33.27 -19.2C33.27 -17.96 33.56 -17.06 34.14 -16.5C34.72 -15.94 35.71 -15.66 37.11 -15.66L41.19 -15.66C41.15 -15.22 41.12 -14.67 41.1 -14.01C41.08 -13.35 41.07 -12.58 41.07 -11.7L41.07 -6.36C39.03 -5.88 36.91 -5.64 34.71 -5.64C27.55 -5.64 23.97 -10.54 23.97 -20.34C23.97 -30.14 27.57 -35.04 34.77 -35.04C38.29 -35.04 41.65 -33.9 44.85 -31.62C45.73 -32.18 46.54 -33.01 47.28 -34.11C48.02 -35.21 48.45 -36.34 48.57 -37.5C44.29 -40.38 39.59 -41.82 34.47 -41.82C31.99 -41.82 29.62 -41.39 27.36 -40.53C25.1 -39.67 23.11 -38.35 21.39 -36.57C19.67 -34.79 18.29 -32.54 17.25 -29.82C16.21 -27.1 15.69 -23.9 15.69 -20.22C15.69 -17.06 16.05 -14.18 16.77 -11.58C17.49 -8.98 18.57 -6.76 20.01 -4.92C21.45 -3.08 23.26 -1.66 25.44 -0.66C27.62 0.34 30.15 0.84 33.03 0.84C38.71 0.84 43.93 0 48.69 -1.68L48.69 -17.4C48.69 -20.8 46.85 -22.5 43.17 -22.5Z M63.27 0C64.27 0.2 65.58 0.3 67.2 0.3C68.82 0.3 70.19 0.2 71.31 0L71.31 -40.98C70.19 -41.18 68.82 -41.28 67.2 -41.28C65.58 -41.28 64.27 -41.18 63.27 -40.98Z M83.79 -3.6C88.31 -0.64 93.13 0.84 98.25 0.84C100.89 0.84 103.18 0.53 105.12 -0.09C107.06 -0.71 108.68 -1.57 109.98 -2.67C111.28 -3.77 112.25 -5.09 112.89 -6.63C113.53 -8.17 113.85 -9.84 113.85 -11.64C113.85 -14.2 113.07 -16.46 111.51 -18.42C109.95 -20.38 107.73 -21.96 104.85 -23.16L97.77 -26.16C94.93 -27.36 93.51 -28.88 93.51 -30.72C93.51 -32 94.02 -33.08 95.04 -33.96C96.06 -34.84 97.53 -35.28 99.45 -35.28C102.45 -35.28 105.97 -34.32 110.01 -32.4C111.77 -34.04 112.71 -36.08 112.83 -38.52C108.59 -40.72 104.27 -41.82 99.87 -41.82C97.71 -41.82 95.74 -41.52 93.96 -40.92C92.18 -40.32 90.64 -39.49 89.34 -38.43C88.04 -37.37 87.04 -36.1 86.34 -34.62C85.64 -33.14 85.29 -31.5 85.29 -29.7C85.29 -27.34 85.99 -25.25 87.39 -23.43C88.79 -21.61 90.89 -20.12 93.69 -18.96L100.77 -15.96C103.77 -14.64 105.31 -12.82 105.39 -10.5C105.39 -9.14 104.83 -8.01 103.71 -7.11C102.59 -6.21 101.07 -5.76 99.15 -5.76C95.19 -5.76 91.15 -7.08 87.03 -9.72C86.23 -9.04 85.52 -8.13 84.9 -6.99C84.28 -5.85 83.91 -4.72 83.79 -3.6Z M148.59 -25.68C149.23 -25.52 149.81 -25.41 150.33 -25.35C150.85 -25.29 151.33 -25.26 151.77 -25.26C154.81 -25.26 156.33 -26.76 156.33 -29.76C156.33 -31.44 155.97 -33.01 155.25 -34.47C154.53 -35.93 153.51 -37.21 152.19 -38.31C150.87 -39.41 149.26 -40.28 147.36 -40.92C145.46 -41.56 143.33 -41.88 140.97 -41.88C138.69 -41.88 136.54 -41.43 134.52 -40.53C132.5 -39.63 130.74 -38.29 129.24 -36.51C127.74 -34.73 126.55 -32.49 125.67 -29.79C124.79 -27.09 124.35 -23.94 124.35 -20.34C124.35 -17.5 124.64 -14.8 125.22 -12.24C125.8 -9.68 126.74 -7.43 128.04 -5.49C129.34 -3.55 131.01 -2.01 133.05 -0.87C135.09 0.27 137.59 0.84 140.55 0.84C142.03 0.84 143.51 0.68 144.99 0.36C146.47 0.04 147.89 -0.4 149.25 -0.96C150.61 -1.52 151.88 -2.17 153.06 -2.91C154.24 -3.65 155.27 -4.46 156.15 -5.34C155.95 -6.26 155.47 -7.22 154.71 -8.22C153.95 -9.22 153.15 -10 152.31 -10.56C150.31 -9.04 148.44 -7.93 146.7 -7.23C144.96 -6.53 143.35 -6.18 141.87 -6.18C139.07 -6.18 136.86 -7.35 135.24 -9.69C133.62 -12.03 132.81 -15.32 132.81 -19.56C132.81 -24.88 133.47 -28.85 134.79 -31.47C136.11 -34.09 138.23 -35.4 141.15 -35.4C142.47 -35.4 143.6 -35.17 144.54 -34.71C145.48 -34.25 146.25 -33.61 146.85 -32.79C147.45 -31.97 147.89 -31.01 148.17 -29.91C148.45 -28.81 148.59 -27.6 148.59 -26.28Z M183.27 -34.32L183.27 -34.32L186.93 -34.26L189.75 -34.26C191.27 -34.26 192.37 -34.54 193.05 -35.1C193.73 -35.66 194.07 -36.53 194.07 -37.71C194.07 -38.89 193.93 -39.98 193.65 -40.98L164.97 -40.98C164.77 -39.98 164.67 -38.86 164.67 -37.62C164.67 -36.38 164.77 -35.26 164.97 -34.26L171.63 -34.26L175.29 -34.32L175.23 -29.88L175.23 0C176.39 0.2 177.74 0.3 179.28 0.3C180.82 0.3 182.17 0.2 183.33 0L183.33 -29.88Z M205.41 0C206.41 0.2 207.72 0.3 209.34 0.3C210.96 0.3 212.33 0.2 213.45 0L213.45 -40.98C212.33 -41.18 210.96 -41.28 209.34 -41.28C207.72 -41.28 206.41 -41.18 205.41 -40.98Z M251.37 -25.68C252.01 -25.52 252.59 -25.41 253.11 -25.35C253.63 -25.29 254.11 -25.26 254.55 -25.26C257.59 -25.26 259.11 -26.76 259.11 -29.76C259.11 -31.44 258.75 -33.01 258.03 -34.47C257.31 -35.93 256.29 -37.21 254.97 -38.31C253.65 -39.41 252.04 -40.28 250.14 -40.92C248.24 -41.56 246.11 -41.88 243.75 -41.88C241.47 -41.88 239.32 -41.43 237.3 -40.53C235.28 -39.63 233.52 -38.29 232.02 -36.51C230.52 -34.73 229.33 -32.49 228.45 -29.79C227.57 -27.09 227.13 -23.94 227.13 -20.34C227.13 -17.5 227.42 -14.8 228 -12.24C228.58 -9.68 229.52 -7.43 230.82 -5.49C232.12 -3.55 233.79 -2.01 235.83 -0.87C237.87 0.27 240.37 0.84 243.33 0.84C244.81 0.84 246.29 0.68 247.77 0.36C249.25 0.04 250.67 -0.4 252.03 -0.96C253.39 -1.52 254.66 -2.17 255.84 -2.91C257.02 -3.65 258.05 -4.46 258.93 -5.34C258.73 -6.26 258.25 -7.22 257.49 -8.22C256.73 -9.22 255.93 -10 255.09 -10.56C253.09 -9.04 251.22 -7.93 249.48 -7.23C247.74 -6.53 246.13 -6.18 244.65 -6.18C241.85 -6.18 239.64 -7.35 238.02 -9.69C236.4 -12.03 235.59 -15.32 235.59 -19.56C235.59 -24.88 236.25 -28.85 237.57 -31.47C238.89 -34.09 241.01 -35.4 243.93 -35.4C245.25 -35.4 246.38 -35.17 247.32 -34.71C248.26 -34.25 249.03 -33.61 249.63 -32.79C250.23 -31.97 250.67 -31.01 250.95 -29.91C251.23 -28.81 251.37 -27.6 251.37 -26.28Z M268.59 -3.6C273.11 -0.64 277.93 0.84 283.05 0.84C285.69 0.84 287.98 0.53 289.92 -0.09C291.86 -0.71 293.48 -1.57 294.78 -2.67C296.08 -3.77 297.05 -5.09 297.69 -6.63C298.33 -8.17 298.65 -9.84 298.65 -11.64C298.65 -14.2 297.87 -16.46 296.31 -18.42C294.75 -20.38 292.53 -21.96 289.65 -23.16L282.57 -26.16C279.73 -27.36 278.31 -28.88 278.31 -30.72C278.31 -32 278.82 -33.08 279.84 -33.96C280.86 -34.84 282.33 -35.28 284.25 -35.28C287.25 -35.28 290.77 -34.32 294.81 -32.4C296.57 -34.04 297.51 -36.08 297.63 -38.52C293.39 -40.72 289.07 -41.82 284.67 -41.82C282.51 -41.82 280.54 -41.52 278.76 -40.92C276.98 -40.32 275.44 -39.49 274.14 -38.43C272.84 -37.37 271.84 -36.1 271.14 -34.62C270.44 -33.14 270.09 -31.5 270.09 -29.7C270.09 -27.34 270.79 -25.25 272.19 -23.43C273.59 -21.61 275.69 -20.12 278.49 -18.96L285.57 -15.96C288.57 -14.64 290.11 -12.82 290.19 -10.5C290.19 -9.14 289.63 -8.01 288.51 -7.11C287.39 -6.21 285.87 -5.76 283.95 -5.76C279.99 -5.76 275.95 -7.08 271.83 -9.72C271.03 -9.04 270.32 -8.13 269.7 -6.99C269.08 -5.85 268.71 -4.72 268.59 -3.6Z"></path></g></g></g></svg>